<svg width="15" height="15" viewBox="0 0 15 15" fill="none" xmlns="http://www.w3.org/2000/svg">
<path d="M11.1991 8.95006C11.0372 9.10694 10.9628 9.33381 10.9997 9.55631L11.5553 12.6313C11.6022 12.8919 11.4922 13.1557 11.2741 13.3063C11.0603 13.4626 10.7759 13.4813 10.5428 13.3563L7.77468 11.9126C7.67843 11.8613 7.57155 11.8338 7.46218 11.8307H7.2928C7.23405 11.8394 7.17655 11.8582 7.12405 11.8869L4.3553 13.3376C4.21843 13.4063 4.06343 13.4307 3.91155 13.4063C3.54155 13.3363 3.29468 12.9838 3.3553 12.6119L3.91155 9.53694C3.94843 9.31256 3.87405 9.08443 3.71218 8.92506L1.4553 6.73756C1.26655 6.55444 1.20093 6.27944 1.28718 6.03131C1.37093 5.78381 1.58468 5.60319 1.8428 5.56256L4.94905 5.11194C5.1853 5.08756 5.3928 4.94381 5.49905 4.73131L6.8678 1.92506C6.9003 1.86256 6.94218 1.80506 6.9928 1.75631L7.04905 1.71256C7.07843 1.68006 7.11218 1.65319 7.14968 1.63131L7.2178 1.60631L7.32405 1.56256H7.58718C7.82218 1.58694 8.02905 1.72756 8.13718 1.93756L9.52405 4.73131C9.62405 4.93569 9.81843 5.07756 10.0428 5.11194L13.1491 5.56256C13.4116 5.60006 13.6309 5.78131 13.7178 6.03131C13.7997 6.28194 13.7291 6.55694 13.5366 6.73756L11.1991 8.95006Z" fill="#FFAC0C"/>
</svg>
